<mxfile host="Electron" modified="2024-02-09T09:47:59.080Z" agent="Mozilla/5.0 (Windows NT 10.0; Win64; x64) AppleWebKit/537.36 (KHTML, like Gecko) draw.io/22.1.2 Chrome/114.0.5735.289 Electron/25.9.4 Safari/537.36" etag="6iad8_-CVY4zI64DrTV4" version="22.1.2" type="device">
  <diagram name="Page-1" id="2c0d36ab-eaac-3732-788b-9136903baeff">
    <mxGraphModel dx="3171.5" dy="828" grid="1" gridSize="10" guides="1" tooltips="1" connect="1" arrows="1" fold="1" page="1" pageScale="1.5" pageWidth="1169" pageHeight="827" background="none" math="0" shadow="0">
      <root>
        <mxCell id="0" />
        <mxCell id="1" parent="0" />
        <mxCell id="123" value="" style="fillColor=#AE4132;strokeColor=none;opacity=30;" parent="1" vertex="1">
          <mxGeometry x="730" y="175.5" width="240" height="100" as="geometry" />
        </mxCell>
        <mxCell id="122" value="" style="fillColor=#10739E;strokeColor=none;opacity=30;" parent="1" vertex="1">
          <mxGeometry x="-90" y="325.5" width="1870" height="100" as="geometry" />
        </mxCell>
        <mxCell id="109" value="" style="fillColor=#d80073;strokeColor=#A50040;opacity=30;fontColor=#ffffff;" parent="1" vertex="1">
          <mxGeometry x="320" y="445.5" width="513" height="80" as="geometry" />
        </mxCell>
        <mxCell id="2" value="Stellenanzeigen Verwaltung" style="rounded=1;fillColor=#23445D;gradientColor=none;strokeColor=none;fontColor=#FFFFFF;fontStyle=1;fontFamily=Tahoma;fontSize=14" parent="1" vertex="1">
          <mxGeometry x="740" y="185.5" width="220" height="80" as="geometry" />
        </mxCell>
        <mxCell id="9" value="" style="edgeStyle=elbowEdgeStyle;elbow=vertical;strokeWidth=2;rounded=0" parent="1" source="2" target="kGFZl7nDNpWa2QsAOw-V-141" edge="1">
          <mxGeometry x="337" y="215.5" width="100" height="100" as="geometry">
            <mxPoint x="337" y="315.5" as="sourcePoint" />
            <mxPoint x="1457" y="335.5" as="targetPoint" />
          </mxGeometry>
        </mxCell>
        <mxCell id="12" value="Company" style="rounded=1;fillColor=#23445D;gradientColor=none;strokeColor=none;fontColor=#FFFFFF;fontStyle=1;fontFamily=Tahoma;fontSize=14" parent="1" vertex="1">
          <mxGeometry x="474.9999999999999" y="335.5" width="190" height="80" as="geometry" />
        </mxCell>
        <mxCell id="25" value="Listenansicht" style="rounded=1;fillColor=#23445D;gradientColor=none;strokeColor=none;fontColor=#FFFFFF;fontStyle=1;fontFamily=Tahoma;fontSize=14" parent="1" vertex="1">
          <mxGeometry x="330" y="455.5" width="130" height="60" as="geometry" />
        </mxCell>
        <mxCell id="29" value="Detailansicht" style="rounded=1;fillColor=#23445D;gradientColor=none;strokeColor=none;fontColor=#FFFFFF;fontStyle=1;fontFamily=Tahoma;fontSize=14" parent="1" vertex="1">
          <mxGeometry x="505" y="455.5" width="130" height="60" as="geometry" />
        </mxCell>
        <mxCell id="59" value="" style="edgeStyle=elbowEdgeStyle;elbow=vertical;strokeWidth=2;rounded=0" parent="1" source="2" target="12" edge="1">
          <mxGeometry x="347" y="225.5" width="100" height="100" as="geometry">
            <mxPoint x="843" y="265.5" as="sourcePoint" />
            <mxPoint x="1429.9999999999998" y="345.5" as="targetPoint" />
          </mxGeometry>
        </mxCell>
        <mxCell id="61" value="" style="edgeStyle=elbowEdgeStyle;elbow=vertical;strokeWidth=2;rounded=0" parent="1" source="2" target="kGFZl7nDNpWa2QsAOw-V-133" edge="1">
          <mxGeometry x="-23" y="135.5" width="100" height="100" as="geometry">
            <mxPoint x="-23" y="235.5" as="sourcePoint" />
            <mxPoint x="202" y="335.5" as="targetPoint" />
          </mxGeometry>
        </mxCell>
        <mxCell id="100" value="" style="edgeStyle=elbowEdgeStyle;elbow=vertical;strokeWidth=2;rounded=0" parent="1" source="12" target="25" edge="1">
          <mxGeometry x="-23" y="135.5" width="100" height="100" as="geometry">
            <mxPoint x="-110" y="235.5" as="sourcePoint" />
            <mxPoint x="-10" y="135.5" as="targetPoint" />
          </mxGeometry>
        </mxCell>
        <mxCell id="101" value="" style="edgeStyle=elbowEdgeStyle;elbow=vertical;strokeWidth=2;rounded=0" parent="1" source="12" target="29" edge="1">
          <mxGeometry x="-23" y="135.5" width="100" height="100" as="geometry">
            <mxPoint x="-110" y="235.5" as="sourcePoint" />
            <mxPoint x="-10" y="135.5" as="targetPoint" />
          </mxGeometry>
        </mxCell>
        <mxCell id="102" value="" style="edgeStyle=elbowEdgeStyle;elbow=vertical;strokeWidth=2;rounded=0" parent="1" source="12" target="kGFZl7nDNpWa2QsAOw-V-158" edge="1">
          <mxGeometry x="-23" y="135.5" width="100" height="100" as="geometry">
            <mxPoint x="-110" y="235.5" as="sourcePoint" />
            <mxPoint x="738" y="455.5" as="targetPoint" />
          </mxGeometry>
        </mxCell>
        <mxCell id="kGFZl7nDNpWa2QsAOw-V-132" value="" style="fillColor=#60a917;strokeColor=#2D7600;opacity=30;fontColor=#ffffff;" vertex="1" parent="1">
          <mxGeometry x="-230" y="445.5" width="510" height="80" as="geometry" />
        </mxCell>
        <mxCell id="kGFZl7nDNpWa2QsAOw-V-133" value="Job" style="rounded=1;fillColor=#23445D;gradientColor=none;strokeColor=none;fontColor=#FFFFFF;fontStyle=1;fontFamily=Tahoma;fontSize=14" vertex="1" parent="1">
          <mxGeometry x="-75.00000000000011" y="335.5" width="190" height="80" as="geometry" />
        </mxCell>
        <mxCell id="kGFZl7nDNpWa2QsAOw-V-134" value="Listenansicht" style="rounded=1;fillColor=#23445D;gradientColor=none;strokeColor=none;fontColor=#FFFFFF;fontStyle=1;fontFamily=Tahoma;fontSize=14" vertex="1" parent="1">
          <mxGeometry x="-220" y="455.5" width="130" height="60" as="geometry" />
        </mxCell>
        <mxCell id="kGFZl7nDNpWa2QsAOw-V-135" value="Detailansicht" style="rounded=1;fillColor=#23445D;gradientColor=none;strokeColor=none;fontColor=#FFFFFF;fontStyle=1;fontFamily=Tahoma;fontSize=14" vertex="1" parent="1">
          <mxGeometry x="-45" y="455.5" width="130" height="60" as="geometry" />
        </mxCell>
        <mxCell id="kGFZl7nDNpWa2QsAOw-V-136" value="Erstellungs-/&#xa;Bearbeitungsansicht" style="rounded=1;fillColor=#23445D;gradientColor=none;strokeColor=none;fontColor=#FFFFFF;fontStyle=1;fontFamily=Tahoma;fontSize=14" vertex="1" parent="1">
          <mxGeometry x="120" y="455.5" width="150" height="60" as="geometry" />
        </mxCell>
        <mxCell id="kGFZl7nDNpWa2QsAOw-V-137" value="" style="edgeStyle=elbowEdgeStyle;elbow=vertical;strokeWidth=2;rounded=0" edge="1" parent="1" source="kGFZl7nDNpWa2QsAOw-V-133" target="kGFZl7nDNpWa2QsAOw-V-134">
          <mxGeometry x="-23" y="135.5" width="100" height="100" as="geometry">
            <mxPoint x="-660" y="235.5" as="sourcePoint" />
            <mxPoint x="-560" y="135.5" as="targetPoint" />
          </mxGeometry>
        </mxCell>
        <mxCell id="kGFZl7nDNpWa2QsAOw-V-138" value="" style="edgeStyle=elbowEdgeStyle;elbow=vertical;strokeWidth=2;rounded=0" edge="1" parent="1" source="kGFZl7nDNpWa2QsAOw-V-133" target="kGFZl7nDNpWa2QsAOw-V-135">
          <mxGeometry x="-23" y="135.5" width="100" height="100" as="geometry">
            <mxPoint x="-660" y="235.5" as="sourcePoint" />
            <mxPoint x="-560" y="135.5" as="targetPoint" />
          </mxGeometry>
        </mxCell>
        <mxCell id="kGFZl7nDNpWa2QsAOw-V-139" value="" style="edgeStyle=elbowEdgeStyle;elbow=vertical;strokeWidth=2;rounded=0" edge="1" parent="1" source="kGFZl7nDNpWa2QsAOw-V-133" target="kGFZl7nDNpWa2QsAOw-V-136">
          <mxGeometry x="-23" y="135.5" width="100" height="100" as="geometry">
            <mxPoint x="-660" y="235.5" as="sourcePoint" />
            <mxPoint x="-560" y="135.5" as="targetPoint" />
          </mxGeometry>
        </mxCell>
        <mxCell id="kGFZl7nDNpWa2QsAOw-V-140" value="" style="fillColor=#6a00ff;strokeColor=#3700CC;opacity=30;fontColor=#ffffff;" vertex="1" parent="1">
          <mxGeometry x="1420" y="445.5" width="510" height="80" as="geometry" />
        </mxCell>
        <mxCell id="kGFZl7nDNpWa2QsAOw-V-141" value="User" style="rounded=1;fillColor=#23445D;gradientColor=none;strokeColor=none;fontColor=#FFFFFF;fontStyle=1;fontFamily=Tahoma;fontSize=14" vertex="1" parent="1">
          <mxGeometry x="1575" y="335.5" width="190" height="80" as="geometry" />
        </mxCell>
        <mxCell id="kGFZl7nDNpWa2QsAOw-V-142" value="Listenansicht" style="rounded=1;fillColor=#23445D;gradientColor=none;strokeColor=none;fontColor=#FFFFFF;fontStyle=1;fontFamily=Tahoma;fontSize=14" vertex="1" parent="1">
          <mxGeometry x="1430" y="455.5" width="130" height="60" as="geometry" />
        </mxCell>
        <mxCell id="kGFZl7nDNpWa2QsAOw-V-143" value="Detailansicht" style="rounded=1;fillColor=#23445D;gradientColor=none;strokeColor=none;fontColor=#FFFFFF;fontStyle=1;fontFamily=Tahoma;fontSize=14" vertex="1" parent="1">
          <mxGeometry x="1605" y="455.5" width="130" height="60" as="geometry" />
        </mxCell>
        <mxCell id="kGFZl7nDNpWa2QsAOw-V-145" value="" style="edgeStyle=elbowEdgeStyle;elbow=vertical;strokeWidth=2;rounded=0" edge="1" parent="1" source="kGFZl7nDNpWa2QsAOw-V-141" target="kGFZl7nDNpWa2QsAOw-V-142">
          <mxGeometry x="-23" y="135.5" width="100" height="100" as="geometry">
            <mxPoint x="990" y="235.5" as="sourcePoint" />
            <mxPoint x="1090" y="135.5" as="targetPoint" />
          </mxGeometry>
        </mxCell>
        <mxCell id="kGFZl7nDNpWa2QsAOw-V-146" value="" style="edgeStyle=elbowEdgeStyle;elbow=vertical;strokeWidth=2;rounded=0" edge="1" parent="1" source="kGFZl7nDNpWa2QsAOw-V-141" target="kGFZl7nDNpWa2QsAOw-V-143">
          <mxGeometry x="-23" y="135.5" width="100" height="100" as="geometry">
            <mxPoint x="990" y="235.5" as="sourcePoint" />
            <mxPoint x="1090" y="135.5" as="targetPoint" />
          </mxGeometry>
        </mxCell>
        <mxCell id="kGFZl7nDNpWa2QsAOw-V-147" value="" style="edgeStyle=elbowEdgeStyle;elbow=vertical;strokeWidth=2;rounded=0" edge="1" parent="1" source="kGFZl7nDNpWa2QsAOw-V-141" target="kGFZl7nDNpWa2QsAOw-V-160">
          <mxGeometry x="-23" y="135.5" width="100" height="100" as="geometry">
            <mxPoint x="990" y="235.5" as="sourcePoint" />
            <mxPoint x="1845" y="455.5" as="targetPoint" />
          </mxGeometry>
        </mxCell>
        <mxCell id="kGFZl7nDNpWa2QsAOw-V-148" value="" style="fillColor=#12AAB5;strokeColor=none;opacity=30;" vertex="1" parent="1">
          <mxGeometry x="876.5" y="445.5" width="513" height="80" as="geometry" />
        </mxCell>
        <mxCell id="kGFZl7nDNpWa2QsAOw-V-149" value="Category" style="rounded=1;fillColor=#23445D;gradientColor=none;strokeColor=none;fontColor=#FFFFFF;fontStyle=1;fontFamily=Tahoma;fontSize=14" vertex="1" parent="1">
          <mxGeometry x="1031.5" y="335.5" width="190" height="80" as="geometry" />
        </mxCell>
        <mxCell id="kGFZl7nDNpWa2QsAOw-V-150" value="Listenansicht" style="rounded=1;fillColor=#23445D;gradientColor=none;strokeColor=none;fontColor=#FFFFFF;fontStyle=1;fontFamily=Tahoma;fontSize=14" vertex="1" parent="1">
          <mxGeometry x="886.5" y="455.5" width="130" height="60" as="geometry" />
        </mxCell>
        <mxCell id="kGFZl7nDNpWa2QsAOw-V-151" value="Detailansicht" style="rounded=1;fillColor=#23445D;gradientColor=none;strokeColor=none;fontColor=#FFFFFF;fontStyle=1;fontFamily=Tahoma;fontSize=14" vertex="1" parent="1">
          <mxGeometry x="1061.5" y="455.5" width="130" height="60" as="geometry" />
        </mxCell>
        <mxCell id="kGFZl7nDNpWa2QsAOw-V-153" value="" style="edgeStyle=elbowEdgeStyle;elbow=vertical;strokeWidth=2;rounded=0" edge="1" parent="1" source="kGFZl7nDNpWa2QsAOw-V-149" target="kGFZl7nDNpWa2QsAOw-V-150">
          <mxGeometry x="-23" y="135.5" width="100" height="100" as="geometry">
            <mxPoint x="446.5" y="235.5" as="sourcePoint" />
            <mxPoint x="546.5" y="135.5" as="targetPoint" />
          </mxGeometry>
        </mxCell>
        <mxCell id="kGFZl7nDNpWa2QsAOw-V-154" value="" style="edgeStyle=elbowEdgeStyle;elbow=vertical;strokeWidth=2;rounded=0" edge="1" parent="1" source="kGFZl7nDNpWa2QsAOw-V-149" target="kGFZl7nDNpWa2QsAOw-V-151">
          <mxGeometry x="-23" y="135.5" width="100" height="100" as="geometry">
            <mxPoint x="446.5" y="235.5" as="sourcePoint" />
            <mxPoint x="546.5" y="135.5" as="targetPoint" />
          </mxGeometry>
        </mxCell>
        <mxCell id="kGFZl7nDNpWa2QsAOw-V-155" value="" style="edgeStyle=elbowEdgeStyle;elbow=vertical;strokeWidth=2;rounded=0" edge="1" parent="1" source="kGFZl7nDNpWa2QsAOw-V-149" target="kGFZl7nDNpWa2QsAOw-V-159">
          <mxGeometry x="-23" y="135.5" width="100" height="100" as="geometry">
            <mxPoint x="446.5" y="235.5" as="sourcePoint" />
            <mxPoint x="1301.5" y="455.5" as="targetPoint" />
          </mxGeometry>
        </mxCell>
        <mxCell id="kGFZl7nDNpWa2QsAOw-V-157" value="" style="edgeStyle=elbowEdgeStyle;elbow=vertical;strokeWidth=2;rounded=0" edge="1" parent="1" source="2" target="kGFZl7nDNpWa2QsAOw-V-149">
          <mxGeometry x="337" y="215.5" width="100" height="100" as="geometry">
            <mxPoint x="862" y="276" as="sourcePoint" />
            <mxPoint x="1660" y="346" as="targetPoint" />
          </mxGeometry>
        </mxCell>
        <mxCell id="kGFZl7nDNpWa2QsAOw-V-158" value="Erstellungs-/&#xa;Bearbeitungsansicht" style="rounded=1;fillColor=#23445D;gradientColor=none;strokeColor=none;fontColor=#FFFFFF;fontStyle=1;fontFamily=Tahoma;fontSize=14" vertex="1" parent="1">
          <mxGeometry x="670" y="455.5" width="150" height="60" as="geometry" />
        </mxCell>
        <mxCell id="kGFZl7nDNpWa2QsAOw-V-159" value="Erstellungs-/&#xa;Bearbeitungsansicht" style="rounded=1;fillColor=#23445D;gradientColor=none;strokeColor=none;fontColor=#FFFFFF;fontStyle=1;fontFamily=Tahoma;fontSize=14" vertex="1" parent="1">
          <mxGeometry x="1226.5" y="455.5" width="150" height="60" as="geometry" />
        </mxCell>
        <mxCell id="kGFZl7nDNpWa2QsAOw-V-160" value="Erstellungs-/&#xa;Bearbeitungsansicht" style="rounded=1;fillColor=#23445D;gradientColor=none;strokeColor=none;fontColor=#FFFFFF;fontStyle=1;fontFamily=Tahoma;fontSize=14" vertex="1" parent="1">
          <mxGeometry x="1770" y="455.5" width="150" height="60" as="geometry" />
        </mxCell>
      </root>
    </mxGraphModel>
  </diagram>
</mxfile>
